HIERARCHY
ROOT hip
{
  OFFSET -6.20824 83.5853 37.2369
  CHANNELS 6 Xposition Yposition Zposition Zrotation Xrotation Yrotation
  JOINT abdomen
  {
    OFFSET 0 20.6881 -0.73152
    CHANNELS 3 Zrotation Xrotation Yrotation
    JOINT chest
    {
      OFFSET 0 11.7043 -0.48768
      CHANNELS 3 Zrotation Xrotation Yrotation
      JOINT neck
      {
        OFFSET 0 22.1894 -2.19456
        CHANNELS 3 Zrotation Xrotation Yrotation
        JOINT head
        {
          OFFSET -0.24384 7.07133 1.2192
          CHANNELS 3 Zrotation Xrotation Yrotation
          JOINT leftEye
          {
            OFFSET 4.14528 8.04674 8.04672
            CHANNELS 3 Zrotation Xrotation Yrotation
            End Site
            {
              OFFSET 1 0 0
            }
          }
          JOINT rightEye
          {
            OFFSET -3.6576 8.04674 8.04672
            CHANNELS 3 Zrotation Xrotation Yrotation
            End Site
            {
              OFFSET 1 0 0
            }
          }
        }
      }
      JOINT rCollar
      {
        OFFSET -2.68224 19.2634 -4.8768
        CHANNELS 3 Zrotation Xrotation Yrotation
        JOINT rShldr
        {
          OFFSET -8.77824 -1.95073 1.46304
          CHANNELS 3 Zrotation Xrotation Yrotation
          JOINT rForeArm
          {
            OFFSET -28.1742 -1.7115 0.48768
            CHANNELS 3 Zrotation Xrotation Yrotation
            JOINT rHand
            {
              OFFSET -22.5879 0.773209 7.07136
              CHANNELS 3 Zrotation Xrotation Yrotation
              JOINT rThumb1
              {
                OFFSET -1.2192 -0.487915 3.41376
                CHANNELS 3 Zrotation Xrotation Yrotation
                JOINT rThumb2
                {
                  OFFSET -3.37035 -0.52449 3.41376
                  CHANNELS 3 Zrotation Xrotation Yrotation
                  End Site
                  {
                    OFFSET -1.78271 -1.18214 1.43049
                  }
                }
              }
              JOINT rIndex1
              {
                OFFSET -7.75947 0.938293 5.60832
                CHANNELS 3 Zrotation Xrotation Yrotation
                JOINT rIndex2
                {
                  OFFSET -2.54057 -0.884171 1.56538
                  CHANNELS 3 Zrotation Xrotation Yrotation
                  End Site
                  {
                    OFFSET -1.62519 -0.234802 1.16502
                  }
                }
              }
              JOINT rMid1
              {
                OFFSET -8.24714 1.18213 3.41376
                CHANNELS 3 Zrotation Xrotation Yrotation
                JOINT rMid2
                {
                  OFFSET -3.10165 -0.590103 1.0647
                  CHANNELS 3 Zrotation Xrotation Yrotation
                  End Site
                  {
                    OFFSET -2.48547 -0.328903 0.83742
                  }
                }
              }
              JOINT rRing1
              {
                OFFSET -8.82822 0.546677 1.51678
                CHANNELS 3 Zrotation Xrotation Yrotation
                JOINT rRing2
                {
                  OFFSET -2.60934 -0.819778 -0.0198488
                  CHANNELS 3 Zrotation Xrotation Yrotation
                  End Site
                  {
                    OFFSET -2.33842 -0.294052 0.168128
                  }
                }
              }
              JOINT rPinky1
              {
                OFFSET -8.27202 -0.0477905 -0.4584
                CHANNELS 3 Zrotation Xrotation Yrotation
                JOINT rPinky2
                {
                  OFFSET -1.82734 -0.647385 -0.700984
                  CHANNELS 3 Zrotation Xrotation Yrotation
                  End Site
                  {
                    OFFSET -1.69225 -0.51767 -0.607171
                  }
                }
              }
            }
          }
        }
      }
      JOINT lCollar
      {
        OFFSET 2.68224 19.2634 -4.8768
        CHANNELS 3 Zrotation Xrotation Yrotation
        JOINT lShldr
        {
          OFFSET 8.77824 -1.95073 1.46304
          CHANNELS 3 Zrotation Xrotation Yrotation
          JOINT lForeArm
          {
            OFFSET 28.1742 -1.7115 0.48768
            CHANNELS 3 Zrotation Xrotation Yrotation
            JOINT lHand
            {
              OFFSET 22.5879 0.773209 7.07136
              CHANNELS 3 Zrotation Xrotation Yrotation
              JOINT lThumb1
              {
                OFFSET 1.2192 -0.487915 3.41376
                CHANNELS 3 Zrotation Xrotation Yrotation
                JOINT lThumb2
                {
                  OFFSET 3.37035 -0.52449 3.41376
                  CHANNELS 3 Zrotation Xrotation Yrotation
                  End Site
                  {
                    OFFSET 1.78271 -1.18214 1.43049
                  }
                }
              }
              JOINT lIndex1
              {
                OFFSET 7.75947 0.938293 5.60832
                CHANNELS 3 Zrotation Xrotation Yrotation
                JOINT lIndex2
                {
                  OFFSET 2.54057 -0.884171 1.56538
                  CHANNELS 3 Zrotation Xrotation Yrotation
                  End Site
                  {
                    OFFSET 1.62519 -0.234802 1.16502
                  }
                }
              }
              JOINT lMid1
              {
                OFFSET 8.24714 1.18213 3.41376
                CHANNELS 3 Zrotation Xrotation Yrotation
                JOINT lMid2
                {
                  OFFSET 3.10165 -0.590103 1.0647
                  CHANNELS 3 Zrotation Xrotation Yrotation
                  End Site
                  {
                    OFFSET 2.48547 -0.328903 0.83742
                  }
                }
              }
              JOINT lRing1
              {
                OFFSET 8.82822 0.546677 1.51678
                CHANNELS 3 Zrotation Xrotation Yrotation
                JOINT lRing2
                {
                  OFFSET 2.60934 -0.819778 -0.0198488
                  CHANNELS 3 Zrotation Xrotation Yrotation
                  End Site
                  {
                    OFFSET 2.33842 -0.294052 0.168128
                  }
                }
              }
              JOINT lPinky1
              {
                OFFSET 8.27202 -0.0477905 -0.4584
                CHANNELS 3 Zrotation Xrotation Yrotation
                JOINT lPinky2
                {
                  OFFSET 1.82734 -0.647385 -0.700984
                  CHANNELS 3 Zrotation Xrotation Yrotation
                  End Site
                  {
                    OFFSET 1.69225 -0.51767 -0.607171
                  }
                }
              }
            }
          }
        }
      }
    }
  }
  JOINT rButtock
  {
    OFFSET -8.77824 4.35084 1.2192
    CHANNELS 3 Zrotation Xrotation Yrotation
    JOINT rThigh
    {
      OFFSET 0 -1.70687 -2.19456
      CHANNELS 3 Zrotation Xrotation Yrotation
      JOINT rShin
      {
        OFFSET 0 -36.8199 0.73152
        CHANNELS 3 Zrotation Xrotation Yrotation
        JOINT rFoot
        {
          OFFSET 0.73152 -45.1104 -5.12064
          CHANNELS 3 Zrotation Xrotation Yrotation
          End Site
          {
            OFFSET -1.1221 -3.69964 12.103
          }
        }
      }
    }
  }
  JOINT lButtock
  {
    OFFSET 8.77824 4.35084 1.2192
    CHANNELS 3 Zrotation Xrotation Yrotation
    JOINT lThigh
    {
      OFFSET 0 -1.70687 -2.19456
      CHANNELS 3 Zrotation Xrotation Yrotation
      JOINT lShin
      {
        OFFSET 0 -36.8199 0.73152
        CHANNELS 3 Zrotation Xrotation Yrotation
        JOINT lFoot
        {
          OFFSET -0.73152 -45.1104 -5.12064
          CHANNELS 3 Zrotation Xrotation Yrotation
          End Site
          {
            OFFSET 1.1221 -3.69964 12.103
          }
        }
      }
    }
  }
}
MOTION
Frames:	4
Frame Time:	0.00833333
-3.61285 84.2564 36.4066 0.943672 0.00141494 -0.0174858 -1.24151 -0.00398119 -0.0340788 -0.342494 -0.00249265 -0.0593272 -2.58226e-014 -1.59028e-015 4.96962e-017 -7.75012e-014 3.18055e-015 1.95679e-016 -0 0 0 -0 0 0 -1.29226e-014 2.87306e-017 1.98785e-016 -2.70462e-013 3.16813e-016 7.95139e-016 -4.68113e-012 1.41972e-012 6.99722e-014 -5.36538e-011 -1.31998e-012 1.90833e-014 -1.26547e-010 2.20849e-013 2.35361e-013 -2.18545e-010 3.84847e-013 4.01545e-013 -1.2654e-010 2.22639e-013 2.25819e-013 7.73091 5.47488 0.417314 -1.26546e-010 2.21446e-013 2.29e-013 2.90554 0.965183 0.102902 -1.26543e-010 2.21148e-013 2.29e-013 10.2786 0.731801 0.0259123 -1.26549e-010 2.21844e-013 2.3218e-013 2.22167 -0.733487 -0.20892 -1.29203e-014 2.83423e-017 -9.93923e-017 -2.75558e-013 6.4605e-016 -7.95139e-016 -4.69639e-012 -1.37976e-012 2.8625e-014 -5.364e-011 1.50405e-012 6.99722e-014 -1.26542e-010 2.68507e-013 2.22639e-013 -2.18528e-010 4.64361e-013 4.04726e-013 -1.26548e-010 2.69154e-013 2.3218e-013 -7.73091 5.47488 -0.417314 -1.26542e-010 2.68657e-013 2.29e-013 -2.90554 0.965183 -0.102902 -1.26556e-010 2.69154e-013 2.32976e-013 -10.2786 0.731801 -0.0259123 -1.26539e-010 2.6995e-013 2.29e-013 -2.22167 -0.733487 0.20892 -2.03217e-016 0 -3.88251e-019 -0.453836 -1.92099 -0.00952718 -0.00915563 -2.07857 -0.0755524 -0.487457 3.99699 0.136653 2.03217e-016 0 3.88251e-019 -1.43728 -5.97115 0.129662 -0.00126422 5.25795 -0.0454136 0.507822 0.710745 -0.0722749 
-5.76023 83.7342 35.4837 -0.562262 0.525807 -0.325725 -0.0256178 -0.112229 0.181227 -0.276661 -1.06192 0.0103281 -0.157041 1.34188 -0.165806 1.50755 -0.128525 -0.29057 -0 0 0 -0 0 0 5.67662e-014 3.36052e-015 -1.04859e-014 22.3144 9.93245 -3.74595 -6.61443 -3.70902 9.45303 0.0393532 4.40277 0.612188 -4.79213e-010 8.09654e-010 -4.72245e-010 -8.33939e-010 1.39935e-009 -8.10875e-010 -4.79208e-010 8.09658e-010 -4.72254e-010 7.73091 5.47488 0.417314 -4.79213e-010 8.09657e-010 -4.72249e-010 2.90554 0.965183 0.102902 -4.79209e-010 8.09657e-010 -4.7225e-010 10.2786 0.731801 0.0259123 -4.79215e-010 8.09657e-010 -4.72246e-010 2.22167 -0.733487 -0.20892 5.67839e-014 3.359e-015 -1.07852e-014 -23.1641 7.61339 2.30829 5.47859 -2.80475 -8.18672 -0.0186591 3.03092 -0.423818 -5.10208e-010 -7.04298e-010 -4.3665e-010 -8.85107e-010 -1.21816e-009 -7.50554e-010 -5.10214e-010 -7.04294e-010 -4.3664e-010 -7.73091 5.47488 -0.417314 -5.10207e-010 -7.04297e-010 -4.36643e-010 -2.90554 0.965183 -0.102902 -5.1022e-010 -7.04297e-010 -4.36642e-010 -10.2786 0.731801 -0.0259123 -5.10206e-010 -7.04296e-010 -4.36645e-010 -2.22167 -0.733487 0.20892 -2.03217e-016 0 -3.88251e-019 -6.26126 -2.20849 -0.00997252 -0.00619139 -1.6632 -0.0543171 -0.195292 3.8674 0.0920393 2.03217e-016 0 3.88251e-019 2.22114 -7.20402 -1.59011 -0.0165834 10.177 -0.180544 0.648033 -4.58994 3.5587 
-5.75897 83.7346 35.4853 -2.14834 1.08069 -0.650541 1.26014 -0.228318 0.408832 -0.201564 -2.17907 0.0841092 -0.314979 2.75974 -0.341314 3.09894 -0.265292 -0.597417 -0 0 0 -0 0 0 1.37247e-013 7.39388e-015 -2.25869e-014 47.3928 20.2888 -8.09144 -12.291 -7.29145 19.5678 -0.0225161 9.0554 1.27148 -8.89457e-010 1.74582e-009 -1.01992e-009 -1.54976e-009 3.01737e-009 -1.75131e-009 -8.89454e-010 1.74582e-009 -1.01993e-009 7.73091 5.47488 0.417314 -8.89459e-010 1.74582e-009 -1.01992e-009 2.90554 0.965183 0.102902 -8.89452e-010 1.74582e-009 -1.01993e-009 10.2786 0.731801 0.0259123 -8.89458e-010 1.74582e-009 -1.01992e-009 2.22167 -0.733487 -0.20892 1.37283e-013 7.39114e-015 -2.28882e-014 -48.3443 15.6184 4.88715 10.4078 -5.57886 -16.9034 0.0106475 6.23796 -0.876301 -9.60513e-010 -1.52002e-009 -9.39753e-010 -1.66737e-009 -2.62899e-009 -1.6153e-009 -9.60519e-010 -1.52001e-009 -9.39742e-010 -7.73091 5.47488 -0.417314 -9.60511e-010 -1.52002e-009 -9.39744e-010 -2.90554 0.965183 -0.102902 -9.60523e-010 -1.52002e-009 -9.39747e-010 -10.2786 0.731801 -0.0259123 -9.60512e-010 -1.52002e-009 -9.39749e-010 -2.22167 -0.733487 0.20892 -2.03217e-016 0 -3.88251e-019 -12.4005 -2.51245 -0.0104438 -0.00339254 -1.224 -0.0318812 0.11337 3.73032 0.044887 2.03217e-016 0 3.88251e-019 6.00791 -8.49915 -3.41839 -0.00664489 15.3774 -0.329545 1.53454 -10.1251 7.48984 
-5.7555 83.735 35.487 -3.5572 1.5744 -0.942519 2.40861 -0.328707 0.611847 -0.137261 -3.18075 0.149864 -0.447774 4.02549 -0.49851 4.51875 -0.385536 -0.871728 -0 0 0 -0 0 0 1.96144e-013 1.00241e-014 -3.18552e-014 71.292 29.2498 -12.712 -16.293 -9.9171 28.7681 -0.170663 13.2022 1.88087 -1.18454e-009 2.42852e-009 -1.41721e-009 -2.06473e-009 4.19728e-009 -2.43343e-009 -1.18454e-009 2.42853e-009 -1.41721e-009 7.73091 5.47488 0.417314 -1.18455e-009 2.42853e-009 -1.4172e-009 2.90554 0.965183 0.102902 -1.18454e-009 2.42853e-009 -1.41721e-009 10.2786 0.731801 0.0259123 -1.18455e-009 2.42853e-009 -1.4172e-009 2.22167 -0.733487 -0.20892 1.96192e-013 1.00203e-014 -3.21569e-014 -71.4586 22.6855 7.44246 14.0949 -7.72854 -24.7705 0.0799863 9.09076 -1.28583 -1.27754e-009 -2.11343e-009 -1.3104e-009 -2.21827e-009 -3.6554e-009 -2.25247e-009 -1.27755e-009 -2.11342e-009 -1.31038e-009 -7.73091 5.47488 -0.417314 -1.27754e-009 -2.11343e-009 -1.31039e-009 -2.90554 0.965183 -0.102902 -1.27755e-009 -2.11343e-009 -1.31039e-009 -10.2786 0.731801 -0.0259123 -1.27754e-009 -2.11343e-009 -1.31039e-009 -2.22167 -0.733487 0.20892 -2.03217e-016 0 -3.88251e-019 -17.8761 -2.78351 -0.0108645 -0.00118652 -0.832456 -0.0118785 0.388429 3.6082 0.00285281 2.03217e-016 0 3.88251e-019 9.31337 -9.64093 -5.06226 0.0266498 20.0148 -0.471121 2.98918 -14.9426 11.1686 
